<?xml version="1.0" encoding="UTF-8"?>
<svg width="143px" height="28px" viewBox="0 0 143 28" version="1.1" xmlns="http://www.w3.org/2000/svg" xmlns:xlink="http://www.w3.org/1999/xlink">
    <title>legrandav-logo-d</title>
    <g id="Desktop-Header" stroke="none" stroke-width="1" fill="none" fill-rule="evenodd">
        <g id="3-D-RegionMenu-Unauth" transform="translate(-59.000000, -106.000000)">
            <g id="Header" transform="translate(0.000000, 40.000000)">
                <g id="logo/color/legrand" transform="translate(40.000000, 0.000000)">
                    <g id="logo/color/legrand" transform="translate(19.000000, 66.000000)">
                        <polyline id="Fill-1" fill="#1A1919" points="6.49672385 4.96784989 6.49672385 9.49814748 11.2255302 9.49814748 11.2255302 21.3430142 15.5268552 21.3430142 15.5268552 4.96784989 6.49672385 4.96784989"></polyline>
                        <polygon id="Fill-2" fill="#1A1919" points="4.87627092 9.49814748 5.91515025 9.49814748 5.91515025 3.53555635 4.87627092 3.53555635"></polygon>
                        <polyline id="Fill-3" fill="#1A1919" points="9.03178824 21.3471973 9.03178824 16.8135532 4.29883959 16.8135532 4.29883959 4.97454285 0 4.97454285 0 21.3471973 9.03178824 21.3471973"></polyline>
                        <polygon id="Fill-4" fill="#1A1919" points="9.61004803 22.7870204 10.6514127 22.7870204 10.6514127 16.8135532 9.61004803 16.8135532"></polygon>
                        <polygon id="Fill-5" fill="#FF000A" points="21.1371349 22.1796343 24.949673 22.1796343 24.949673 4.50603562 21.1371349 4.50603562"></polygon>
                        <path d="M51.8685773,9.24967133 L51.8685773,22.1796343 L55.9511908,22.1796343 L55.9511908,15.5820485 C55.9818436,12.3493486 59.5872685,12.1401936 59.5872685,12.1401936 L59.5872685,9.02462053 C57.5873843,9.02462053 55.9404209,10.5748775 55.9404209,10.5748775 L55.9404209,9.24967133 L51.8685773,9.24967133" id="Fill-6" fill="#FF000A"></path>
                        <path d="M68.7582367,9.24632485 L68.7582367,22.1796343 L72.6834443,22.1796343 L72.6834443,14.5546791 C72.6834443,12.7099319 75.5954545,12.5877853 75.5954545,14.5546791 L75.5954545,22.1796343 L79.452729,22.1796343 L79.452729,12.4991036 C79.452729,10.5522888 76.927606,7.6801721 72.6834443,10.4619338 L72.6834443,9.24632485 L68.7582367,9.24632485" id="Fill-7" fill="#FF000A"></path>
                        <path d="M60.9161062,17.4234493 C60.9161062,16.5048404 61.6550857,15.7627585 62.5630696,15.7627585 C63.4685681,15.7627585 64.2075476,16.5048404 64.2075476,17.4234493 C64.2075476,18.3445679 63.4685681,19.0874866 62.5630696,19.0874866 C61.6550857,19.0874866 60.9161062,18.3445679 60.9161062,17.4234493 Z M60.5325327,12.0372894 C60.5325327,12.0372894 60.8837965,11.9419147 62.355128,11.9996414 C64.2315727,12.0665711 64.0045768,13.6084618 64.0045768,13.6084618 C64.0045768,13.6084618 63.0990783,13.0562926 61.7868096,13.0337038 C60.3453024,13.0086052 57.4606311,13.9029521 57.4606311,17.7430381 C57.4606311,21.1397155 60.1464739,22.1143779 61.7445586,22.1143779 C63.2805094,22.1143779 64.1727526,21.3672762 64.1727526,21.3672762 L64.1727526,22.1796343 L67.8751065,22.1796343 C67.8751065,22.1796343 67.8751065,15.219792 67.8751065,13.3742082 C67.8751065,11.6524441 67.5644368,11.1931397 66.7964614,10.3305844 C65.7120172,9.12501494 63.1570699,9.02629377 63.1570699,9.02629377 L60.5325327,9.02629377 L60.5325327,12.0372894 L60.5325327,12.0372894 Z" id="Fill-8" fill="#FF000A"></path>
                        <path d="M86.0149006,9.65626867 C81.9182034,9.55503765 80.1784533,13.0495996 80.1801102,15.7853472 C80.1519428,19.3744472 82.4890071,22.3084738 85.9817625,22.0315525 C86.7986165,21.9437074 87.4829182,21.6224453 88.1630777,21.0844986 L88.1630777,22.1796343 L92.126394,22.1796343 L92.126394,4.50352576 L88.1630777,4.50352576 L88.1630777,10.3699056 C87.3445667,9.76921238 86.0149006,9.65626867 86.0149006,9.65626867 Z M85.9618796,18.3362017 C84.5932762,18.3362017 83.490606,17.2201506 83.490606,15.843074 C83.490606,14.4659974 84.5932762,13.3440899 85.9618796,13.3440899 C87.3221985,13.3440899 88.4290109,14.4659974 88.4290109,15.843074 C88.4290109,17.2201506 87.3221985,18.3362017 85.9618796,18.3362017 L85.9618796,18.3362017 Z" id="Fill-9" fill="#FF000A"></path>
                        <path d="M44.9700541,24.2452492 C43.1540864,24.1657703 42.7721698,22.9903191 42.7721698,22.9903191 L38.1949702,22.9903191 C39.146862,29.4448428 50.3732207,29.7067049 50.8976311,23.5148799 L50.8976311,9.24046851 L47.0743232,9.24046851 L47.0743232,10.5865902 C44.4415014,7.89518346 38.2985267,9.84199833 38.5122675,15.9016374 C38.7077822,21.5663918 44.6519283,23.2714234 47.0743232,21.0778057 L47.0743232,22.5979443 C47.0635533,24.3113422 44.9700541,24.2452492 44.9700541,24.2452492 Z M44.6941794,18.2257679 C43.3280614,18.2257679 42.219592,17.1063703 42.219592,15.7259472 C42.219592,14.3471973 43.3280614,13.2244532 44.6941794,13.2244532 C46.0611259,13.2244532 47.1720806,14.3471973 47.1720806,15.7259472 C47.1720806,17.1063703 46.0611259,18.2257679 44.6941794,18.2257679 L44.6941794,18.2257679 Z" id="Fill-10" fill="#FF000A"></path>
                        <path d="M31.7885477,8.76694156 C28.6636251,8.76694156 25.6132633,11.348751 25.6149196,15.4306203 C25.6190625,20.0186447 28.456512,22.6707302 32.2019454,22.5552767 C35.0708761,22.4657583 37.0608188,20.6427632 37.7790871,18.0701566 L33.8679632,18.0701566 C33.6683062,18.480937 33.1091008,18.9611569 31.957552,18.9611569 C30.4978188,18.9611569 29.736471,17.8693678 29.736471,16.7784152 L38.0093969,16.7750687 C38.476644,12.013864 35.4304245,8.76694156 31.7885477,8.76694156 Z M29.6751655,14.0727859 C29.7977765,13.0044221 30.6974758,12.1719852 31.7918615,12.1719852 C32.8854187,12.1719852 33.785118,13.0044221 33.9052436,14.0727859 L29.6751655,14.0727859 L29.6751655,14.0727859 Z" id="Fill-11" fill="#FF000A"></path>
                        <path d="M95.2596011,4.50352576 C94.0351484,4.50352576 93.0385201,5.50997968 93.0385201,6.74734074 C93.0385201,7.98972153 94.0351484,8.99450221 95.2596011,8.99450221 C96.4873675,8.99450221 97.4848243,7.98972153 97.4848243,6.74734074 C97.4848243,5.50997968 96.4873675,4.50352576 95.2596011,4.50352576 Z M95.2596011,8.67324011 C94.2116088,8.67324011 93.3566459,7.81152145 93.3566459,6.74734074 C93.3566459,5.68734313 94.2116088,4.82478786 95.2596011,4.82478786 C96.3100787,4.82478786 97.1642132,5.68734313 97.1642132,6.74734074 C97.1642132,7.81152145 96.3100787,8.67324011 95.2596011,8.67324011 L95.2596011,8.67324011 Z" id="Fill-12" fill="#1A1919"></path>
                        <path d="M94.6896258,7.89769332 L94.3715001,7.89769332 L94.3715001,5.54177124 L95.4484882,5.54177124 C95.8295763,5.54177124 96.2139783,5.67646707 96.2139783,6.17258277 C96.2139783,6.51978009 96.0391748,6.64861958 95.8900534,6.73813792 C96.0226057,6.79419147 96.1551581,6.85275487 96.1684134,7.17987331 L96.1874678,7.60822278 C96.19161,7.74124537 96.2073506,7.78976933 96.305108,7.84582288 L96.305108,7.89769332 L95.9190492,7.89769332 C95.8726559,7.75295805 95.8627144,7.39488467 95.8627144,7.30536632 C95.8627144,7.11210709 95.8237772,6.88538305 95.4484882,6.88538305 L94.6896258,6.88538305 L94.6896258,7.89769332 Z M94.6896258,6.61180829 L95.4161786,6.61180829 C95.6456599,6.61180829 95.8900534,6.55240827 95.8900534,6.20437433 C95.8900534,5.84379108 95.6266055,5.81283614 95.4691995,5.81283614 L94.6896258,5.81283614 L94.6896258,6.61180829 L94.6896258,6.61180829 Z" id="Fill-13" fill="#1A1919"></path>
                        <polygon id="Fill-14" fill="#1A1919" points="108.754262 28 109.272045 28 109.272045 0 108.754262 0"></polygon>
                        <path d="M127.724994,8.91251345 L125.087202,16.3860404 L130.322193,16.3860404 L127.724994,8.91251345 Z M131.877198,20.8970957 L130.755473,17.6978606 L124.634038,17.6978606 L123.512314,20.8970957 L121.918371,20.8970957 L127.074659,6.7456675 L128.334735,6.7456675 L133.471969,20.8970957 L131.877198,20.8970957 L131.877198,20.8970957 Z" id="Fill-15" fill="#1A1919"></path>
                        <polyline id="Fill-16" fill="#1A1919" points="138.393805 20.8970957 137.173494 20.8970957 132.567299 6.7456675 134.143015 6.7456675 137.783235 18.194813 141.425112 6.7456675 143 6.7456675 138.393805 20.8970957"></polyline>
                    </g>
                </g>
            </g>
        </g>
    </g>
</svg>